<mxfile host="app.diagrams.net" agent="Mozilla/5.0 (Windows NT 10.0; Win64; x64) AppleWebKit/537.36 (KHTML, like Gecko) Chrome/135.0.0.0 Safari/537.36" version="27.0.1">
  <diagram name="Page-1" id="OqS1zpWbOdB1CPwai2Lr">
    <mxGraphModel dx="5209" dy="3207" grid="0" gridSize="10" guides="1" tooltips="1" connect="1" arrows="1" fold="1" page="1" pageScale="1" pageWidth="850" pageHeight="1100" background="#ffffff" math="0" shadow="1">
      <root>
        <mxCell id="0" />
        <mxCell id="1" parent="0" />
        <mxCell id="GOw8maG6rHlXjGwnNqGd-105" value="VerificationRequestsGUI" style="swimlane;fontStyle=1;align=center;verticalAlign=top;childLayout=stackLayout;horizontal=1;startSize=26;horizontalStack=0;resizeParent=1;resizeParentMax=0;resizeLast=0;collapsible=1;marginBottom=0;whiteSpace=wrap;html=1;fillColor=#5500FF;fontColor=#FFFFFF;strokeColor=#000000;" parent="1" vertex="1">
          <mxGeometry x="-2852.5" y="242" width="337" height="320" as="geometry">
            <mxRectangle x="-2644" y="544" width="170" height="26" as="alternateBounds" />
          </mxGeometry>
        </mxCell>
        <mxCell id="GOw8maG6rHlXjGwnNqGd-116" value="- title: String" style="text;strokeColor=#000000;fillColor=#5500FF;align=left;verticalAlign=top;spacingLeft=4;spacingRight=4;overflow=hidden;rotatable=0;points=[[0,0.5],[1,0.5]];portConstraint=eastwest;whiteSpace=wrap;html=1;fontColor=#FFFFFF;" parent="GOw8maG6rHlXjGwnNqGd-105" vertex="1">
          <mxGeometry y="26" width="337" height="26" as="geometry" />
        </mxCell>
        <mxCell id="GOw8maG6rHlXjGwnNqGd-117" value="- verificationStatus: String" style="text;strokeColor=#000000;fillColor=#5500FF;align=left;verticalAlign=middle;spacingLeft=4;spacingRight=4;overflow=hidden;rotatable=0;points=[[0,0.5],[1,0.5]];portConstraint=eastwest;whiteSpace=wrap;html=1;fontColor=#FFFFFF;" parent="GOw8maG6rHlXjGwnNqGd-105" vertex="1">
          <mxGeometry y="52" width="337" height="26" as="geometry" />
        </mxCell>
        <mxCell id="GOw8maG6rHlXjGwnNqGd-118" value="- username: String" style="text;strokeColor=#000000;fillColor=#5500FF;align=left;verticalAlign=top;spacingLeft=4;spacingRight=4;overflow=hidden;rotatable=0;points=[[0,0.5],[1,0.5]];portConstraint=eastwest;whiteSpace=wrap;html=1;fontColor=#FFFFFF;" parent="GOw8maG6rHlXjGwnNqGd-105" vertex="1">
          <mxGeometry y="78" width="337" height="26" as="geometry" />
        </mxCell>
        <mxCell id="GOw8maG6rHlXjGwnNqGd-120" value="- requestDate: String" style="text;strokeColor=#000000;fillColor=#5500FF;align=left;verticalAlign=top;spacingLeft=4;spacingRight=4;overflow=hidden;rotatable=0;points=[[0,0.5],[1,0.5]];portConstraint=eastwest;whiteSpace=wrap;html=1;fontColor=#FFFFFF;" parent="GOw8maG6rHlXjGwnNqGd-105" vertex="1">
          <mxGeometry y="104" width="337" height="26" as="geometry" />
        </mxCell>
        <mxCell id="GOw8maG6rHlXjGwnNqGd-106" value="- btnApproveRequest: Button" style="text;strokeColor=#000000;fillColor=#5500FF;align=left;verticalAlign=top;spacingLeft=4;spacingRight=4;overflow=hidden;rotatable=0;points=[[0,0.5],[1,0.5]];portConstraint=eastwest;whiteSpace=wrap;html=1;fontColor=#FFFFFF;" parent="GOw8maG6rHlXjGwnNqGd-105" vertex="1">
          <mxGeometry y="130" width="337" height="26" as="geometry" />
        </mxCell>
        <mxCell id="GOw8maG6rHlXjGwnNqGd-115" value="- btnRejectRequest: Button" style="text;strokeColor=#000000;fillColor=#5500FF;align=left;verticalAlign=top;spacingLeft=4;spacingRight=4;overflow=hidden;rotatable=0;points=[[0,0.5],[1,0.5]];portConstraint=eastwest;whiteSpace=wrap;html=1;fontColor=#FFFFFF;" parent="GOw8maG6rHlXjGwnNqGd-105" vertex="1">
          <mxGeometry y="156" width="337" height="26" as="geometry" />
        </mxCell>
        <mxCell id="GOw8maG6rHlXjGwnNqGd-114" value="- fldUploadedFiles: Field" style="text;strokeColor=#000000;fillColor=#5500FF;align=left;verticalAlign=top;spacingLeft=4;spacingRight=4;overflow=hidden;rotatable=0;points=[[0,0.5],[1,0.5]];portConstraint=eastwest;whiteSpace=wrap;html=1;fontColor=#FFFFFF;" parent="GOw8maG6rHlXjGwnNqGd-105" vertex="1">
          <mxGeometry y="182" width="337" height="26" as="geometry" />
        </mxCell>
        <mxCell id="GOw8maG6rHlXjGwnNqGd-107" value="" style="line;strokeWidth=1;fillColor=#5500FF;align=left;verticalAlign=middle;spacingTop=-1;spacingLeft=3;spacingRight=3;rotatable=0;labelPosition=right;points=[];portConstraint=eastwest;strokeColor=#000000;fontColor=#FFFFFF;" parent="GOw8maG6rHlXjGwnNqGd-105" vertex="1">
          <mxGeometry y="208" width="337" height="8" as="geometry" />
        </mxCell>
        <mxCell id="GOw8maG6rHlXjGwnNqGd-108" value="&lt;div&gt;+ VerificationRequestsGUI()&lt;/div&gt;" style="text;strokeColor=#000000;fillColor=#5500FF;align=left;verticalAlign=top;spacingLeft=4;spacingRight=4;overflow=hidden;rotatable=0;points=[[0,0.5],[1,0.5]];portConstraint=eastwest;whiteSpace=wrap;html=1;fontColor=#FFFFFF;" parent="GOw8maG6rHlXjGwnNqGd-105" vertex="1">
          <mxGeometry y="216" width="337" height="26" as="geometry" />
        </mxCell>
        <mxCell id="GOw8maG6rHlXjGwnNqGd-121" value="+btnApproveRequestPress() : void" style="text;align=left;verticalAlign=top;spacingLeft=4;spacingRight=4;overflow=hidden;rotatable=0;points=[[0,0.5],[1,0.5]];portConstraint=eastwest;whiteSpace=wrap;html=1;fillColor=#5500FF;strokeColor=#000000;fontColor=#FFFFFF;" parent="GOw8maG6rHlXjGwnNqGd-105" vertex="1">
          <mxGeometry y="242" width="337" height="26" as="geometry" />
        </mxCell>
        <mxCell id="GOw8maG6rHlXjGwnNqGd-111" value="+btnRejectRequestPress() : void" style="text;strokeColor=#000000;fillColor=#5500FF;align=left;verticalAlign=top;spacingLeft=4;spacingRight=4;overflow=hidden;rotatable=0;points=[[0,0.5],[1,0.5]];portConstraint=eastwest;whiteSpace=wrap;html=1;fontColor=#FFFFFF;" parent="GOw8maG6rHlXjGwnNqGd-105" vertex="1">
          <mxGeometry y="268" width="337" height="26" as="geometry" />
        </mxCell>
        <mxCell id="GOw8maG6rHlXjGwnNqGd-110" value="+fldUploadedFilesPress() : void" style="text;strokeColor=#000000;fillColor=#5500FF;align=left;verticalAlign=top;spacingLeft=4;spacingRight=4;overflow=hidden;rotatable=0;points=[[0,0.5],[1,0.5]];portConstraint=eastwest;whiteSpace=wrap;html=1;fontColor=#FFFFFF;" parent="GOw8maG6rHlXjGwnNqGd-105" vertex="1">
          <mxGeometry y="294" width="337" height="26" as="geometry" />
        </mxCell>
        <mxCell id="4MrUlmJJ-RdR6S4KyqIs-55" value="VerificationEntity" style="swimlane;fontStyle=1;align=center;verticalAlign=top;childLayout=stackLayout;horizontal=1;startSize=26;horizontalStack=0;resizeParent=1;resizeParentMax=0;resizeLast=0;collapsible=1;marginBottom=0;whiteSpace=wrap;html=1;fillColor=#00FF51;strokeColor=#000000;fontColor=#000000;" parent="1" vertex="1">
          <mxGeometry x="-3265" y="429" width="270" height="528" as="geometry">
            <mxRectangle x="-2624" y="644" width="150" height="26" as="alternateBounds" />
          </mxGeometry>
        </mxCell>
        <mxCell id="4MrUlmJJ-RdR6S4KyqIs-62" value="-accountId: integer" style="text;strokeColor=#000000;fillColor=#00FF51;align=left;verticalAlign=top;spacingLeft=4;spacingRight=4;overflow=hidden;rotatable=0;points=[[0,0.5],[1,0.5]];portConstraint=eastwest;whiteSpace=wrap;html=1;fontColor=#000000;" parent="4MrUlmJJ-RdR6S4KyqIs-55" vertex="1">
          <mxGeometry y="26" width="270" height="26" as="geometry" />
        </mxCell>
        <mxCell id="4MrUlmJJ-RdR6S4KyqIs-56" value="-id: integer" style="text;strokeColor=#000000;fillColor=#00FF51;align=left;verticalAlign=top;spacingLeft=4;spacingRight=4;overflow=hidden;rotatable=0;points=[[0,0.5],[1,0.5]];portConstraint=eastwest;whiteSpace=wrap;html=1;fontColor=#000000;" parent="4MrUlmJJ-RdR6S4KyqIs-55" vertex="1">
          <mxGeometry y="52" width="270" height="26" as="geometry" />
        </mxCell>
        <mxCell id="4MrUlmJJ-RdR6S4KyqIs-61" value="-status: VerificationStatus" style="text;strokeColor=#000000;fillColor=#00FF51;align=left;verticalAlign=top;spacingLeft=4;spacingRight=4;overflow=hidden;rotatable=0;points=[[0,0.5],[1,0.5]];portConstraint=eastwest;whiteSpace=wrap;html=1;fontColor=#000000;" parent="4MrUlmJJ-RdR6S4KyqIs-55" vertex="1">
          <mxGeometry y="78" width="270" height="26" as="geometry" />
        </mxCell>
        <mxCell id="4MrUlmJJ-RdR6S4KyqIs-60" value="-governmentIDHashed: string" style="text;strokeColor=#000000;fillColor=#00FF51;align=left;verticalAlign=top;spacingLeft=4;spacingRight=4;overflow=hidden;rotatable=0;points=[[0,0.5],[1,0.5]];portConstraint=eastwest;whiteSpace=wrap;html=1;fontColor=#000000;" parent="4MrUlmJJ-RdR6S4KyqIs-55" vertex="1">
          <mxGeometry y="104" width="270" height="26" as="geometry" />
        </mxCell>
        <mxCell id="4MrUlmJJ-RdR6S4KyqIs-59" value="-phoneNumber: String" style="text;strokeColor=#000000;fillColor=#00FF51;align=left;verticalAlign=top;spacingLeft=4;spacingRight=4;overflow=hidden;rotatable=0;points=[[0,0.5],[1,0.5]];portConstraint=eastwest;whiteSpace=wrap;html=1;fontColor=#000000;" parent="4MrUlmJJ-RdR6S4KyqIs-55" vertex="1">
          <mxGeometry y="130" width="270" height="26" as="geometry" />
        </mxCell>
        <mxCell id="4MrUlmJJ-RdR6S4KyqIs-63" value="-validatedNum: bool" style="text;strokeColor=#000000;fillColor=#00FF51;align=left;verticalAlign=top;spacingLeft=4;spacingRight=4;overflow=hidden;rotatable=0;points=[[0,0.5],[1,0.5]];portConstraint=eastwest;whiteSpace=wrap;html=1;fontColor=#000000;" parent="4MrUlmJJ-RdR6S4KyqIs-55" vertex="1">
          <mxGeometry y="156" width="270" height="26" as="geometry" />
        </mxCell>
        <mxCell id="4MrUlmJJ-RdR6S4KyqIs-57" value="" style="line;strokeWidth=1;fillColor=#00FF51;align=left;verticalAlign=middle;spacingTop=-1;spacingLeft=3;spacingRight=3;rotatable=0;labelPosition=right;points=[];portConstraint=eastwest;strokeColor=#000000;fontColor=#000000;" parent="4MrUlmJJ-RdR6S4KyqIs-55" vertex="1">
          <mxGeometry y="182" width="270" height="8" as="geometry" />
        </mxCell>
        <mxCell id="TtvQXbVJvoLlcyAV71Qk-151" value="+ VerificationEntity(id: Integer, accountId: Integer, status: VerificationStatus, governmentIDHashed: String, phoneNumber: String, validatedNum: bool)" style="text;strokeColor=#000000;fillColor=#00FF51;align=left;verticalAlign=top;spacingLeft=4;spacingRight=4;overflow=hidden;rotatable=0;whiteSpace=wrap;html=1;fontColor=#000000;" parent="4MrUlmJJ-RdR6S4KyqIs-55" vertex="1">
          <mxGeometry y="190" width="270" height="26" as="geometry" />
        </mxCell>
        <mxCell id="26" value="+ setAccountId(accountId: Integer): void" style="text;strokeColor=#000000;fillColor=#00FF51;align=left;verticalAlign=top;spacingLeft=4;spacingRight=4;overflow=hidden;rotatable=0;whiteSpace=wrap;html=1;fontColor=#000000;" parent="4MrUlmJJ-RdR6S4KyqIs-55" vertex="1">
          <mxGeometry y="216" width="270" height="26" as="geometry" />
        </mxCell>
        <mxCell id="27" value="+ getAccountId(): Integer" style="text;strokeColor=#000000;fillColor=#00FF51;align=left;verticalAlign=top;spacingLeft=4;spacingRight=4;overflow=hidden;rotatable=0;whiteSpace=wrap;html=1;fontColor=#000000;" parent="4MrUlmJJ-RdR6S4KyqIs-55" vertex="1">
          <mxGeometry y="242" width="270" height="26" as="geometry" />
        </mxCell>
        <mxCell id="28" value="+ setValidatedNum(validated: bool): void" style="text;strokeColor=#000000;fillColor=#00FF51;align=left;verticalAlign=top;spacingLeft=4;spacingRight=4;overflow=hidden;rotatable=0;whiteSpace=wrap;html=1;fontColor=#000000;" parent="4MrUlmJJ-RdR6S4KyqIs-55" vertex="1">
          <mxGeometry y="268" width="270" height="26" as="geometry" />
        </mxCell>
        <mxCell id="29" value="+ isValidatedNum(): bool" style="text;strokeColor=#000000;fillColor=#00FF51;align=left;verticalAlign=top;spacingLeft=4;spacingRight=4;overflow=hidden;rotatable=0;whiteSpace=wrap;html=1;fontColor=#000000;" parent="4MrUlmJJ-RdR6S4KyqIs-55" vertex="1">
          <mxGeometry y="294" width="270" height="26" as="geometry" />
        </mxCell>
        <mxCell id="30" value="+ setPhoneNumber(phone: String): void" style="text;strokeColor=#000000;fillColor=#00FF51;align=left;verticalAlign=top;spacingLeft=4;spacingRight=4;overflow=hidden;rotatable=0;whiteSpace=wrap;html=1;fontColor=#000000;" parent="4MrUlmJJ-RdR6S4KyqIs-55" vertex="1">
          <mxGeometry y="320" width="270" height="26" as="geometry" />
        </mxCell>
        <mxCell id="31" value="+ getPhoneNumber(): String" style="text;strokeColor=#000000;fillColor=#00FF51;align=left;verticalAlign=top;spacingLeft=4;spacingRight=4;overflow=hidden;rotatable=0;whiteSpace=wrap;html=1;fontColor=#000000;" parent="4MrUlmJJ-RdR6S4KyqIs-55" vertex="1">
          <mxGeometry y="346" width="270" height="26" as="geometry" />
        </mxCell>
        <mxCell id="32" value="+ setGovernmentIDHashed(govId: String): void" style="text;strokeColor=#000000;fillColor=#00FF51;align=left;verticalAlign=top;spacingLeft=4;spacingRight=4;overflow=hidden;rotatable=0;whiteSpace=wrap;html=1;fontColor=#000000;" parent="4MrUlmJJ-RdR6S4KyqIs-55" vertex="1">
          <mxGeometry y="372" width="270" height="26" as="geometry" />
        </mxCell>
        <mxCell id="33" value="+ getGovernmentIDHashed(): String" style="text;strokeColor=#000000;fillColor=#00FF51;align=left;verticalAlign=top;spacingLeft=4;spacingRight=4;overflow=hidden;rotatable=0;whiteSpace=wrap;html=1;fontColor=#000000;" parent="4MrUlmJJ-RdR6S4KyqIs-55" vertex="1">
          <mxGeometry y="398" width="270" height="26" as="geometry" />
        </mxCell>
        <mxCell id="34" value="+ setStatus(status: VerificationStatus): void" style="text;strokeColor=#000000;fillColor=#00FF51;align=left;verticalAlign=top;spacingLeft=4;spacingRight=4;overflow=hidden;rotatable=0;whiteSpace=wrap;html=1;fontColor=#000000;" parent="4MrUlmJJ-RdR6S4KyqIs-55" vertex="1">
          <mxGeometry y="424" width="270" height="26" as="geometry" />
        </mxCell>
        <mxCell id="35" value="+ getStatus(): VerificationStatus" style="text;strokeColor=#000000;fillColor=#00FF51;align=left;verticalAlign=top;spacingLeft=4;spacingRight=4;overflow=hidden;rotatable=0;whiteSpace=wrap;html=1;fontColor=#000000;" parent="4MrUlmJJ-RdR6S4KyqIs-55" vertex="1">
          <mxGeometry y="450" width="270" height="26" as="geometry" />
        </mxCell>
        <mxCell id="36" value="+ setId(id: Integer): void" style="text;strokeColor=#000000;fillColor=#00FF51;align=left;verticalAlign=top;spacingLeft=4;spacingRight=4;overflow=hidden;rotatable=0;whiteSpace=wrap;html=1;fontColor=#000000;" parent="4MrUlmJJ-RdR6S4KyqIs-55" vertex="1">
          <mxGeometry y="476" width="270" height="26" as="geometry" />
        </mxCell>
        <mxCell id="37" value="+ getId(): Integer" style="text;strokeColor=#000000;fillColor=#00FF51;align=left;verticalAlign=top;spacingLeft=4;spacingRight=4;overflow=hidden;rotatable=0;whiteSpace=wrap;html=1;fontColor=#000000;" parent="4MrUlmJJ-RdR6S4KyqIs-55" vertex="1">
          <mxGeometry y="502" width="270" height="26" as="geometry" />
        </mxCell>
        <mxCell id="u1aH-HpFvIxzcUHhpghH-38" style="edgeStyle=orthogonalEdgeStyle;rounded=0;orthogonalLoop=1;jettySize=auto;html=1;exitX=0.5;exitY=0;exitDx=0;exitDy=0;entryX=0.5;entryY=1;entryDx=0;entryDy=0;endArrow=none;startFill=0;" parent="1" source="H2AgAY1qbFDTJF13Do6O-7" target="GOw8maG6rHlXjGwnNqGd-105" edge="1">
          <mxGeometry relative="1" as="geometry" />
        </mxCell>
        <mxCell id="u1aH-HpFvIxzcUHhpghH-39" style="edgeStyle=orthogonalEdgeStyle;rounded=0;orthogonalLoop=1;jettySize=auto;html=1;exitX=1;exitY=0.5;exitDx=0;exitDy=0;entryX=0;entryY=0.5;entryDx=0;entryDy=0;endArrow=none;startFill=0;" parent="1" source="H2AgAY1qbFDTJF13Do6O-7" target="U0l2AVK42Dn3-A5_-HGm-49" edge="1">
          <mxGeometry relative="1" as="geometry" />
        </mxCell>
        <mxCell id="H2AgAY1qbFDTJF13Do6O-7" value="VerificationController" style="swimlane;fontStyle=1;align=center;verticalAlign=top;childLayout=stackLayout;horizontal=1;startSize=26;horizontalStack=0;resizeParent=1;resizeParentMax=0;resizeLast=0;collapsible=1;marginBottom=0;whiteSpace=wrap;html=1;fillColor=light-dark(#FFFF00,#FFFF33);strokeColor=#000000;fontColor=#000000;" parent="1" vertex="1">
          <mxGeometry x="-2847" y="696" width="326" height="138" as="geometry">
            <mxRectangle x="-2659" y="594" width="185" height="26" as="alternateBounds" />
          </mxGeometry>
        </mxCell>
        <mxCell id="H2AgAY1qbFDTJF13Do6O-9" value="" style="line;strokeWidth=1;fillColor=light-dark(#FFFF00,#FFFF33);align=left;verticalAlign=middle;spacingTop=-1;spacingLeft=3;spacingRight=3;rotatable=0;labelPosition=right;points=[];portConstraint=eastwest;strokeColor=#000000;fontColor=#000000;" parent="H2AgAY1qbFDTJF13Do6O-7" vertex="1">
          <mxGeometry y="26" width="326" height="8" as="geometry" />
        </mxCell>
        <mxCell id="TtvQXbVJvoLlcyAV71Qk-137" value="+ VerificationController()" style="text;strokeColor=#000000;fillColor=light-dark(#FFFF00,#FFFF33);align=left;verticalAlign=top;spacingLeft=4;spacingRight=4;overflow=hidden;rotatable=0;points=[[0,0.5],[1,0.5]];portConstraint=eastwest;whiteSpace=wrap;html=1;fontColor=#000000;" parent="H2AgAY1qbFDTJF13Do6O-7" vertex="1">
          <mxGeometry y="34" width="326" height="26" as="geometry" />
        </mxCell>
        <mxCell id="8rEBr2aL7rWZqsQNYB0q-67" value="+ verifyAccount(id: int): void" style="text;strokeColor=#000000;fillColor=light-dark(#FFFF00,#FFFF33);align=left;verticalAlign=top;spacingLeft=4;spacingRight=4;overflow=hidden;rotatable=0;points=[[0,0.5],[1,0.5]];portConstraint=eastwest;whiteSpace=wrap;html=1;fontColor=#000000;" parent="H2AgAY1qbFDTJF13Do6O-7" vertex="1">
          <mxGeometry y="60" width="326" height="26" as="geometry" />
        </mxCell>
        <mxCell id="8rEBr2aL7rWZqsQNYB0q-66" value="+ rejectVerification(id: int): void" style="text;strokeColor=#000000;fillColor=light-dark(#FFFF00,#FFFF33);align=left;verticalAlign=top;spacingLeft=4;spacingRight=4;overflow=hidden;rotatable=0;points=[[0,0.5],[1,0.5]];portConstraint=eastwest;whiteSpace=wrap;html=1;fontColor=#000000;" parent="H2AgAY1qbFDTJF13Do6O-7" vertex="1">
          <mxGeometry y="86" width="326" height="26" as="geometry" />
        </mxCell>
        <mxCell id="H2AgAY1qbFDTJF13Do6O-10" value="+ getVerification(accountId: int): VerificationEntity" style="text;strokeColor=#000000;fillColor=light-dark(#FFFF00,#FFFF33);align=left;verticalAlign=top;spacingLeft=4;spacingRight=4;overflow=hidden;rotatable=0;points=[[0,0.5],[1,0.5]];portConstraint=eastwest;whiteSpace=wrap;html=1;fontColor=#000000;" parent="H2AgAY1qbFDTJF13Do6O-7" vertex="1">
          <mxGeometry y="112" width="326" height="26" as="geometry" />
        </mxCell>
        <mxCell id="U0l2AVK42Dn3-A5_-HGm-49" value="ProxyDBController" style="swimlane;fontStyle=1;align=center;verticalAlign=top;childLayout=stackLayout;horizontal=1;startSize=26;horizontalStack=0;resizeParent=1;resizeParentMax=0;resizeLast=0;collapsible=1;marginBottom=0;whiteSpace=wrap;html=1;strokeColor=default;shadow=1;fillColor=#FFFF00;gradientColor=#FFB200;" parent="1" vertex="1">
          <mxGeometry x="-2379" y="291" width="500" height="974" as="geometry">
            <mxRectangle x="-2300" y="735" width="266" height="66" as="alternateBounds" />
          </mxGeometry>
        </mxCell>
        <mxCell id="U0l2AVK42Dn3-A5_-HGm-45" value="+ id: int" style="text;strokeColor=default;fillColor=none;align=left;verticalAlign=top;spacingLeft=4;spacingRight=4;overflow=hidden;rotatable=0;points=[[0,0.5],[1,0.5]];portConstraint=eastwest;whiteSpace=wrap;html=1;shadow=1;fontStyle=0" parent="U0l2AVK42Dn3-A5_-HGm-49" vertex="1">
          <mxGeometry y="26" width="500" height="26" as="geometry" />
        </mxCell>
        <mxCell id="U0l2AVK42Dn3-A5_-HGm-46" value="+ dbConnection: DatabaseConnection" style="text;strokeColor=default;fillColor=none;align=left;verticalAlign=top;spacingLeft=4;spacingRight=4;overflow=hidden;rotatable=0;points=[[0,0.5],[1,0.5]];portConstraint=eastwest;whiteSpace=wrap;html=1;shadow=1;fontStyle=0" parent="U0l2AVK42Dn3-A5_-HGm-49" vertex="1">
          <mxGeometry y="52" width="500" height="26" as="geometry" />
        </mxCell>
        <mxCell id="U0l2AVK42Dn3-A5_-HGm-47" value="- cache: Map&amp;lt;String, Object&amp;gt;" style="text;strokeColor=default;fillColor=none;align=left;verticalAlign=top;spacingLeft=4;spacingRight=4;overflow=hidden;rotatable=0;points=[[0,0.5],[1,0.5]];portConstraint=eastwest;whiteSpace=wrap;html=1;shadow=1;fontStyle=0" parent="U0l2AVK42Dn3-A5_-HGm-49" vertex="1">
          <mxGeometry y="78" width="500" height="26" as="geometry" />
        </mxCell>
        <mxCell id="U0l2AVK42Dn3-A5_-HGm-48" value="- lastFetched: LocalDateTIme" style="text;strokeColor=default;fillColor=none;align=left;verticalAlign=top;spacingLeft=4;spacingRight=4;overflow=hidden;rotatable=0;points=[[0,0.5],[1,0.5]];portConstraint=eastwest;whiteSpace=wrap;html=1;shadow=1;fontStyle=0" parent="U0l2AVK42Dn3-A5_-HGm-49" vertex="1">
          <mxGeometry y="104" width="500" height="26" as="geometry" />
        </mxCell>
        <mxCell id="U0l2AVK42Dn3-A5_-HGm-51" value="" style="line;strokeWidth=1;fillColor=none;align=left;verticalAlign=middle;spacingTop=-1;spacingLeft=3;spacingRight=3;rotatable=0;labelPosition=right;points=[];portConstraint=eastwest;strokeColor=default;shadow=1;fontStyle=0" parent="U0l2AVK42Dn3-A5_-HGm-49" vertex="1">
          <mxGeometry y="130" width="500" height="8" as="geometry" />
        </mxCell>
        <mxCell id="U0l2AVK42Dn3-A5_-HGm-53" value="+ ProxyDBController()" style="text;strokeColor=#000000;fillColor=light-dark(#FFFF00,#FFFF00);align=left;verticalAlign=top;spacingLeft=4;spacingRight=4;overflow=hidden;rotatable=0;points=[[0,0.5],[1,0.5]];portConstraint=eastwest;whiteSpace=wrap;html=1;shadow=1;fontColor=#000000;fontStyle=0;gradientColor=#FFB200;" parent="U0l2AVK42Dn3-A5_-HGm-49" vertex="1">
          <mxGeometry y="138" width="500" height="26" as="geometry" />
        </mxCell>
        <mxCell id="CeRw56cfuyo3TGLGe_MA-16" value="+ getAccountEvents(accountId: int): List&amp;lt;EventEntity&amp;gt;" style="text;strokeColor=#9673a6;fillColor=#e1d5e7;align=left;verticalAlign=top;spacingLeft=4;spacingRight=4;overflow=hidden;rotatable=0;points=[[0,0.5],[1,0.5]];portConstraint=eastwest;whiteSpace=wrap;html=1;shadow=1;fontStyle=0" parent="U0l2AVK42Dn3-A5_-HGm-49" vertex="1">
          <mxGeometry y="164" width="500" height="26" as="geometry" />
        </mxCell>
        <mxCell id="CeRw56cfuyo3TGLGe_MA-15" value="+ getVenueEvents(venueId: int): List&amp;lt;EventEntity&amp;gt;" style="text;strokeColor=#9673a6;fillColor=#e1d5e7;align=left;verticalAlign=top;spacingLeft=4;spacingRight=4;overflow=hidden;rotatable=0;points=[[0,0.5],[1,0.5]];portConstraint=eastwest;whiteSpace=wrap;html=1;shadow=1;fontStyle=0" parent="U0l2AVK42Dn3-A5_-HGm-49" vertex="1">
          <mxGeometry y="190" width="500" height="30" as="geometry" />
        </mxCell>
        <mxCell id="CeRw56cfuyo3TGLGe_MA-13" value="+ getEventFeed(accountId: int): EventEntity" style="text;strokeColor=#9673a6;fillColor=#e1d5e7;align=left;verticalAlign=top;spacingLeft=4;spacingRight=4;overflow=hidden;rotatable=0;points=[[0,0.5],[1,0.5]];portConstraint=eastwest;whiteSpace=wrap;html=1;shadow=1;fontStyle=0" parent="U0l2AVK42Dn3-A5_-HGm-49" vertex="1">
          <mxGeometry y="220" width="500" height="26" as="geometry" />
        </mxCell>
        <mxCell id="CeRw56cfuyo3TGLGe_MA-12" value="+ getNearbyEvents(location: String): List&amp;lt;EventEntity&amp;gt;" style="text;strokeColor=#9673a6;fillColor=#e1d5e7;align=left;verticalAlign=top;spacingLeft=4;spacingRight=4;overflow=hidden;rotatable=0;points=[[0,0.5],[1,0.5]];portConstraint=eastwest;whiteSpace=wrap;html=1;shadow=1;fontStyle=0" parent="U0l2AVK42Dn3-A5_-HGm-49" vertex="1">
          <mxGeometry y="246" width="500" height="26" as="geometry" />
        </mxCell>
        <mxCell id="CeRw56cfuyo3TGLGe_MA-8" value="+ getEventsByFilters(filters: String[]): List&amp;lt;EventEntity&amp;gt;" style="text;align=left;verticalAlign=top;spacingLeft=4;spacingRight=4;overflow=hidden;rotatable=0;points=[[0,0.5],[1,0.5]];portConstraint=eastwest;whiteSpace=wrap;html=1;fillColor=#e1d5e7;strokeColor=#9673a6;shadow=1;fontStyle=0" parent="U0l2AVK42Dn3-A5_-HGm-49" vertex="1">
          <mxGeometry y="272" width="500" height="26" as="geometry" />
        </mxCell>
        <mxCell id="8rEBr2aL7rWZqsQNYB0q-47" value="+ getEventsByKeywords(keywords: String[]): List&amp;lt;EventEntity&amp;gt;" style="text;align=left;verticalAlign=top;spacingLeft=4;spacingRight=4;overflow=hidden;rotatable=0;points=[[0,0.5],[1,0.5]];portConstraint=eastwest;whiteSpace=wrap;html=1;fillColor=#e1d5e7;strokeColor=#9673a6;shadow=1;fontStyle=0" parent="U0l2AVK42Dn3-A5_-HGm-49" vertex="1">
          <mxGeometry y="298" width="500" height="26" as="geometry" />
        </mxCell>
        <mxCell id="CeRw56cfuyo3TGLGe_MA-11" value="+ getLikedEvents(accountId: int): List&amp;lt;EventEntity&amp;gt;" style="text;strokeColor=#9673a6;fillColor=#e1d5e7;align=left;verticalAlign=top;spacingLeft=4;spacingRight=4;overflow=hidden;rotatable=0;points=[[0,0.5],[1,0.5]];portConstraint=eastwest;whiteSpace=wrap;html=1;shadow=1;fontStyle=0" parent="U0l2AVK42Dn3-A5_-HGm-49" vertex="1">
          <mxGeometry y="324" width="500" height="26" as="geometry" />
        </mxCell>
        <mxCell id="CeRw56cfuyo3TGLGe_MA-10" value="+ getAllEvents(): List&amp;lt;EventEntity&amp;gt;" style="text;strokeColor=#9673a6;fillColor=#e1d5e7;align=left;verticalAlign=top;spacingLeft=4;spacingRight=4;overflow=hidden;rotatable=0;points=[[0,0.5],[1,0.5]];portConstraint=eastwest;whiteSpace=wrap;html=1;shadow=1;fontStyle=0" parent="U0l2AVK42Dn3-A5_-HGm-49" vertex="1">
          <mxGeometry y="350" width="500" height="26" as="geometry" />
        </mxCell>
        <mxCell id="CeRw56cfuyo3TGLGe_MA-9" value="+ getNotifiedEvents(accountId: int): List&amp;lt;EventEntity&amp;gt;" style="text;strokeColor=#9673a6;fillColor=#e1d5e7;align=left;verticalAlign=top;spacingLeft=4;spacingRight=4;overflow=hidden;rotatable=0;points=[[0,0.5],[1,0.5]];portConstraint=eastwest;whiteSpace=wrap;html=1;shadow=1;fontStyle=0" parent="U0l2AVK42Dn3-A5_-HGm-49" vertex="1">
          <mxGeometry y="376" width="500" height="26" as="geometry" />
        </mxCell>
        <mxCell id="CeRw56cfuyo3TGLGe_MA-17" value="+ deleteEvent(eventId: int): void" style="text;strokeColor=default;fillColor=#b0e3e6;align=left;verticalAlign=top;spacingLeft=4;spacingRight=4;overflow=hidden;rotatable=0;points=[[0,0.5],[1,0.5]];portConstraint=eastwest;whiteSpace=wrap;html=1;shadow=1;fontStyle=0" parent="U0l2AVK42Dn3-A5_-HGm-49" vertex="1">
          <mxGeometry y="402" width="500" height="26" as="geometry" />
        </mxCell>
        <mxCell id="CeRw56cfuyo3TGLGe_MA-18" value="+ createEvent(event: EventEntity): void" style="text;strokeColor=default;fillColor=#b0e3e6;align=left;verticalAlign=top;spacingLeft=4;spacingRight=4;overflow=hidden;rotatable=0;points=[[0,0.5],[1,0.5]];portConstraint=eastwest;whiteSpace=wrap;html=1;shadow=1;fontStyle=0" parent="U0l2AVK42Dn3-A5_-HGm-49" vertex="1">
          <mxGeometry y="428" width="500" height="26" as="geometry" />
        </mxCell>
        <mxCell id="CeRw56cfuyo3TGLGe_MA-19" value="+ editEvent(event: EventEntity): void" style="text;strokeColor=default;fillColor=#b0e3e6;align=left;verticalAlign=top;spacingLeft=4;spacingRight=4;overflow=hidden;rotatable=0;points=[[0,0.5],[1,0.5]];portConstraint=eastwest;whiteSpace=wrap;html=1;shadow=1;fontStyle=0" parent="U0l2AVK42Dn3-A5_-HGm-49" vertex="1">
          <mxGeometry y="454" width="500" height="26" as="geometry" />
        </mxCell>
        <mxCell id="CeRw56cfuyo3TGLGe_MA-20" value="+ getΑccountById(accountId: int): AccountEntity" style="text;strokeColor=#9673a6;fillColor=#e1d5e7;align=left;verticalAlign=top;spacingLeft=4;spacingRight=4;overflow=hidden;rotatable=0;points=[[0,0.5],[1,0.5]];portConstraint=eastwest;whiteSpace=wrap;html=1;shadow=1;fontStyle=0" parent="U0l2AVK42Dn3-A5_-HGm-49" vertex="1">
          <mxGeometry y="480" width="500" height="26" as="geometry" />
        </mxCell>
        <mxCell id="CeRw56cfuyo3TGLGe_MA-24" value="+ getFollowingEntities(accountId: int): Map&amp;lt;String, AccountEntity/VenueEntity&amp;gt;" style="text;strokeColor=default;fillColor=#d0cee2;align=left;verticalAlign=top;spacingLeft=4;spacingRight=4;overflow=hidden;rotatable=0;points=[[0,0.5],[1,0.5]];portConstraint=eastwest;whiteSpace=wrap;html=1;shadow=1;fontStyle=0" parent="U0l2AVK42Dn3-A5_-HGm-49" vertex="1">
          <mxGeometry y="506" width="500" height="26" as="geometry" />
        </mxCell>
        <mxCell id="CeRw56cfuyo3TGLGe_MA-23" value="+ getEventVenue(eventId: int): VenueEntity" style="text;strokeColor=default;fillColor=#d0cee2;align=left;verticalAlign=top;spacingLeft=4;spacingRight=4;overflow=hidden;rotatable=0;points=[[0,0.5],[1,0.5]];portConstraint=eastwest;whiteSpace=wrap;html=1;shadow=1;fontStyle=0" parent="U0l2AVK42Dn3-A5_-HGm-49" vertex="1">
          <mxGeometry y="532" width="500" height="26" as="geometry" />
        </mxCell>
        <mxCell id="CeRw56cfuyo3TGLGe_MA-22" value="+ getEventOwner(eventId: int): AccountEntity" style="text;strokeColor=default;fillColor=#d0cee2;align=left;verticalAlign=top;spacingLeft=4;spacingRight=4;overflow=hidden;rotatable=0;points=[[0,0.5],[1,0.5]];portConstraint=eastwest;whiteSpace=wrap;html=1;shadow=1;fontStyle=0" parent="U0l2AVK42Dn3-A5_-HGm-49" vertex="1">
          <mxGeometry y="558" width="500" height="26" as="geometry" />
        </mxCell>
        <mxCell id="CeRw56cfuyo3TGLGe_MA-21" value="+ getEventDetails(eventId: int): EventEntity" style="text;strokeColor=default;fillColor=#d0cee2;align=left;verticalAlign=top;spacingLeft=4;spacingRight=4;overflow=hidden;rotatable=0;points=[[0,0.5],[1,0.5]];portConstraint=eastwest;whiteSpace=wrap;html=1;shadow=1;fontStyle=0" parent="U0l2AVK42Dn3-A5_-HGm-49" vertex="1">
          <mxGeometry y="584" width="500" height="26" as="geometry" />
        </mxCell>
        <mxCell id="NR3JPTZGQrciZuihDhtA-40" value="+ searchVenuesByName(name: String): List&amp;lt;VenueEntity&amp;gt;" style="text;align=left;verticalAlign=top;spacingLeft=4;spacingRight=4;overflow=hidden;rotatable=0;points=[[0,0.5],[1,0.5]];portConstraint=eastwest;whiteSpace=wrap;html=1;shadow=1;fillColor=#fff2cc;strokeColor=#d6b656;fontStyle=0" parent="U0l2AVK42Dn3-A5_-HGm-49" vertex="1">
          <mxGeometry y="610" width="500" height="26" as="geometry" />
        </mxCell>
        <mxCell id="NR3JPTZGQrciZuihDhtA-39" value="+ searchAccountsByName(name: String): List&amp;lt;AccountEntity&amp;gt;" style="text;align=left;verticalAlign=top;spacingLeft=4;spacingRight=4;overflow=hidden;rotatable=0;points=[[0,0.5],[1,0.5]];portConstraint=eastwest;whiteSpace=wrap;html=1;shadow=1;fillColor=#fff2cc;strokeColor=#d6b656;fontStyle=0" parent="U0l2AVK42Dn3-A5_-HGm-49" vertex="1">
          <mxGeometry y="636" width="500" height="26" as="geometry" />
        </mxCell>
        <mxCell id="CeRw56cfuyo3TGLGe_MA-36" value="+ rejectAccountVerification(accountId: int, message: String): void" style="text;strokeColor=#b85450;fillColor=#f8cecc;align=left;verticalAlign=top;spacingLeft=4;spacingRight=4;overflow=hidden;rotatable=0;points=[[0,0.5],[1,0.5]];portConstraint=eastwest;whiteSpace=wrap;html=1;shadow=1;fontStyle=0" parent="U0l2AVK42Dn3-A5_-HGm-49" vertex="1">
          <mxGeometry y="662" width="500" height="26" as="geometry" />
        </mxCell>
        <mxCell id="CeRw56cfuyo3TGLGe_MA-35" value="+ verifyAccount(accountId: int): void" style="text;strokeColor=#b85450;fillColor=#f8cecc;align=left;verticalAlign=top;spacingLeft=4;spacingRight=4;overflow=hidden;rotatable=0;points=[[0,0.5],[1,0.5]];portConstraint=eastwest;whiteSpace=wrap;html=1;shadow=1;fontStyle=0" parent="U0l2AVK42Dn3-A5_-HGm-49" vertex="1">
          <mxGeometry y="688" width="500" height="26" as="geometry" />
        </mxCell>
        <mxCell id="CeRw56cfuyo3TGLGe_MA-33" value="+ isAccountVerified(accountId: int): bool" style="text;strokeColor=#b85450;fillColor=#f8cecc;align=left;verticalAlign=top;spacingLeft=4;spacingRight=4;overflow=hidden;rotatable=0;points=[[0,0.5],[1,0.5]];portConstraint=eastwest;whiteSpace=wrap;html=1;shadow=1;fontStyle=0" parent="U0l2AVK42Dn3-A5_-HGm-49" vertex="1">
          <mxGeometry y="714" width="500" height="26" as="geometry" />
        </mxCell>
        <mxCell id="CeRw56cfuyo3TGLGe_MA-37" value="+ getVerificationStatus(accountId: int): VerificationStatus" style="text;strokeColor=#b85450;fillColor=#f8cecc;align=left;verticalAlign=top;spacingLeft=4;spacingRight=4;overflow=hidden;rotatable=0;points=[[0,0.5],[1,0.5]];portConstraint=eastwest;whiteSpace=wrap;html=1;shadow=1;fontStyle=0" parent="U0l2AVK42Dn3-A5_-HGm-49" vertex="1">
          <mxGeometry y="740" width="500" height="26" as="geometry" />
        </mxCell>
        <mxCell id="CeRw56cfuyo3TGLGe_MA-38" value="+ updateVerificationRequest(accountId: int, files: String[]): void" style="text;strokeColor=#b85450;fillColor=#f8cecc;align=left;verticalAlign=top;spacingLeft=4;spacingRight=4;overflow=hidden;rotatable=0;points=[[0,0.5],[1,0.5]];portConstraint=eastwest;whiteSpace=wrap;html=1;shadow=1;fontStyle=0" parent="U0l2AVK42Dn3-A5_-HGm-49" vertex="1">
          <mxGeometry y="766" width="500" height="26" as="geometry" />
        </mxCell>
        <mxCell id="CeRw56cfuyo3TGLGe_MA-34" value="+ getVerificationRequests(): List&amp;lt;VerificationEntity&amp;gt;" style="text;strokeColor=#b85450;fillColor=#f8cecc;align=left;verticalAlign=top;spacingLeft=4;spacingRight=4;overflow=hidden;rotatable=0;points=[[0,0.5],[1,0.5]];portConstraint=eastwest;whiteSpace=wrap;html=1;shadow=1;fontStyle=0" parent="U0l2AVK42Dn3-A5_-HGm-49" vertex="1">
          <mxGeometry y="792" width="500" height="26" as="geometry" />
        </mxCell>
        <mxCell id="CeRw56cfuyo3TGLGe_MA-29" value="+ getAccountReviews(accountId: int): List&amp;lt;ReviewEntity&amp;gt;" style="text;strokeColor=#d6b656;fillColor=#fff2cc;align=left;verticalAlign=top;spacingLeft=4;spacingRight=4;overflow=hidden;rotatable=0;points=[[0,0.5],[1,0.5]];portConstraint=eastwest;whiteSpace=wrap;html=1;shadow=1;fontStyle=0" parent="U0l2AVK42Dn3-A5_-HGm-49" vertex="1">
          <mxGeometry y="818" width="500" height="26" as="geometry" />
        </mxCell>
        <mxCell id="CeRw56cfuyo3TGLGe_MA-28" value="+ createReview(review: ReviewEntity): void" style="text;strokeColor=#d6b656;fillColor=#fff2cc;align=left;verticalAlign=top;spacingLeft=4;spacingRight=4;overflow=hidden;rotatable=0;points=[[0,0.5],[1,0.5]];portConstraint=eastwest;whiteSpace=wrap;html=1;shadow=1;fontStyle=0" parent="U0l2AVK42Dn3-A5_-HGm-49" vertex="1">
          <mxGeometry y="844" width="500" height="26" as="geometry" />
        </mxCell>
        <mxCell id="CeRw56cfuyo3TGLGe_MA-27" value="+ editReview(review: ReviewEntity): void" style="text;strokeColor=#d6b656;fillColor=#fff2cc;align=left;verticalAlign=top;spacingLeft=4;spacingRight=4;overflow=hidden;rotatable=0;points=[[0,0.5],[1,0.5]];portConstraint=eastwest;whiteSpace=wrap;html=1;shadow=1;fontStyle=0" parent="U0l2AVK42Dn3-A5_-HGm-49" vertex="1">
          <mxGeometry y="870" width="500" height="26" as="geometry" />
        </mxCell>
        <mxCell id="CeRw56cfuyo3TGLGe_MA-26" value="+ deleteReview(reviewId: int): void" style="text;strokeColor=#d6b656;fillColor=#fff2cc;align=left;verticalAlign=top;spacingLeft=4;spacingRight=4;overflow=hidden;rotatable=0;points=[[0,0.5],[1,0.5]];portConstraint=eastwest;whiteSpace=wrap;html=1;shadow=1;fontStyle=0" parent="U0l2AVK42Dn3-A5_-HGm-49" vertex="1">
          <mxGeometry y="896" width="500" height="26" as="geometry" />
        </mxCell>
        <mxCell id="CeRw56cfuyo3TGLGe_MA-25" value="+ getEventReview(eventId: int): List&amp;lt;ReniewEntity&amp;gt;" style="text;strokeColor=#d6b656;fillColor=#fff2cc;align=left;verticalAlign=top;spacingLeft=4;spacingRight=4;overflow=hidden;rotatable=0;points=[[0,0.5],[1,0.5]];portConstraint=eastwest;whiteSpace=wrap;html=1;shadow=1;fontStyle=0" parent="U0l2AVK42Dn3-A5_-HGm-49" vertex="1">
          <mxGeometry y="922" width="500" height="26" as="geometry" />
        </mxCell>
        <mxCell id="CeRw56cfuyo3TGLGe_MA-40" value="- updateCache(): void" style="text;strokeColor=default;fillColor=none;align=left;verticalAlign=top;spacingLeft=4;spacingRight=4;overflow=hidden;rotatable=0;points=[[0,0.5],[1,0.5]];portConstraint=eastwest;whiteSpace=wrap;html=1;shadow=1;fontStyle=0" parent="U0l2AVK42Dn3-A5_-HGm-49" vertex="1">
          <mxGeometry y="948" width="500" height="26" as="geometry" />
        </mxCell>
        <mxCell id="GOw8maG6rHlXjGwnNqGd-124" value="&amp;nbsp;" style="text;whiteSpace=wrap;html=1;" parent="1" vertex="1">
          <mxGeometry x="-3365.666666666666" y="-1314.9966666666664" width="31" height="36" as="geometry" />
        </mxCell>
        <mxCell id="u1aH-HpFvIxzcUHhpghH-37" style="edgeStyle=orthogonalEdgeStyle;rounded=0;orthogonalLoop=1;jettySize=auto;html=1;exitX=1;exitY=0.75;exitDx=0;exitDy=0;entryX=0;entryY=0.5;entryDx=0;entryDy=0;endArrow=none;startFill=0;" parent="1" source="31" target="8rEBr2aL7rWZqsQNYB0q-66" edge="1">
          <mxGeometry relative="1" as="geometry" />
        </mxCell>
        <mxCell id="u1aH-HpFvIxzcUHhpghH-40" value="1" style="text;html=1;align=center;verticalAlign=middle;resizable=0;points=[];autosize=1;strokeColor=none;fillColor=none;" parent="1" vertex="1">
          <mxGeometry x="-2995" y="796" width="25" height="26" as="geometry" />
        </mxCell>
        <mxCell id="u1aH-HpFvIxzcUHhpghH-41" value="1" style="text;html=1;align=center;verticalAlign=middle;resizable=0;points=[];autosize=1;strokeColor=none;fillColor=none;" parent="1" vertex="1">
          <mxGeometry x="-2877.5" y="767" width="25" height="26" as="geometry" />
        </mxCell>
        <mxCell id="u1aH-HpFvIxzcUHhpghH-42" value="1" style="text;html=1;align=center;verticalAlign=middle;resizable=0;points=[];autosize=1;strokeColor=none;fillColor=none;" parent="1" vertex="1">
          <mxGeometry x="-2716" y="671" width="25" height="26" as="geometry" />
        </mxCell>
        <mxCell id="u1aH-HpFvIxzcUHhpghH-43" value="1" style="text;html=1;align=center;verticalAlign=middle;resizable=0;points=[];autosize=1;strokeColor=none;fillColor=none;" parent="1" vertex="1">
          <mxGeometry x="-2685" y="562" width="25" height="26" as="geometry" />
        </mxCell>
        <mxCell id="u1aH-HpFvIxzcUHhpghH-45" value="1" style="text;html=1;align=center;verticalAlign=middle;resizable=0;points=[];autosize=1;strokeColor=none;fillColor=none;" parent="1" vertex="1">
          <mxGeometry x="-2515.5" y="781" width="25" height="26" as="geometry" />
        </mxCell>
        <mxCell id="u1aH-HpFvIxzcUHhpghH-46" value="1" style="text;html=1;align=center;verticalAlign=middle;resizable=0;points=[];autosize=1;strokeColor=none;fillColor=none;" parent="1" vertex="1">
          <mxGeometry x="-2411" y="749" width="25" height="26" as="geometry" />
        </mxCell>
      </root>
    </mxGraphModel>
  </diagram>
</mxfile>
